<mxfile host="app.diagrams.net" agent="Mozilla/5.0 (Windows NT 10.0; Win64; x64) AppleWebKit/537.36 (KHTML, like Gecko) Chrome/131.0.0.0 Safari/537.36" version="26.0.2">
  <diagram name="Page-1" id="vLpUXJJKIdPCgLeDz0mK">
    <mxGraphModel dx="1247" dy="671" grid="1" gridSize="10" guides="1" tooltips="1" connect="1" arrows="1" fold="1" page="1" pageScale="1" pageWidth="850" pageHeight="1100" math="0" shadow="0">
      <root>
        <mxCell id="0" />
        <mxCell id="1" parent="0" />
        <mxCell id="8dHCftSa8eZ308mUbLY6-1" value="Customer" style="rounded=0;whiteSpace=wrap;html=1;" vertex="1" parent="1">
          <mxGeometry x="20" y="520" width="120" height="60" as="geometry" />
        </mxCell>
        <mxCell id="8dHCftSa8eZ308mUbLY6-2" value="1.0&lt;div&gt;Buy&lt;/div&gt;&lt;div&gt;Product&lt;/div&gt;" style="ellipse;whiteSpace=wrap;html=1;aspect=fixed;" vertex="1" parent="1">
          <mxGeometry x="380" y="360" width="90" height="90" as="geometry" />
        </mxCell>
        <mxCell id="8dHCftSa8eZ308mUbLY6-5" value="1.0&lt;div&gt;Return&lt;/div&gt;&lt;div&gt;Product&lt;/div&gt;" style="ellipse;whiteSpace=wrap;html=1;aspect=fixed;" vertex="1" parent="1">
          <mxGeometry x="380" y="505" width="90" height="90" as="geometry" />
        </mxCell>
        <mxCell id="8dHCftSa8eZ308mUbLY6-6" value="1.0&lt;div&gt;Search&lt;/div&gt;&lt;div&gt;Product&lt;/div&gt;" style="ellipse;whiteSpace=wrap;html=1;aspect=fixed;" vertex="1" parent="1">
          <mxGeometry x="380" y="650" width="90" height="90" as="geometry" />
        </mxCell>
      </root>
    </mxGraphModel>
  </diagram>
</mxfile>
